<?xml version="1.0" encoding="UTF-8"?><svg id="Layer_1" xmlns="http://www.w3.org/2000/svg" viewBox="0 0 1200 1200"><defs><style>.cls-1{fill:#fff;}.cls-2{fill:none;}</style></defs><path class="cls-1" d="M1200,600C1200,268.63,931.37,0,600,0S0,268.63,0,600c0,299.48,219.41,547.7,506.25,592.71v-419.27h-152.34v-173.44h152.34v-132.19c0-150.38,89.58-233.44,226.63-233.44,65.65,0,134.31,11.72,134.31,11.72v147.66h-75.66c-74.53,0-97.78,46.25-97.78,93.7v112.55h166.41l-26.6,173.44h-139.8v419.27c286.84-45.01,506.25-293.23,506.25-592.71Z"/><path class="cls-2" d="M833.55,773.44l26.6-173.44h-166.41v-112.55c0-47.45,23.24-93.7,97.78-93.7h75.66V246.09s-68.66-11.72-134.31-11.72c-137.05,0-226.63,83.06-226.63,233.44v132.19h-152.34v173.44h152.34v419.27c30.55,4.79,61.86,7.29,93.75,7.29s63.2-2.5,93.75-7.29v-419.27h139.8Z"/></svg>