<?xml version="1.0" encoding="UTF-8"?><svg id="Layer_1" xmlns="http://www.w3.org/2000/svg" viewBox="0 0 1200 1200"><defs><style>.cls-1{fill:#fff;fill-rule:evenodd;}</style></defs><path class="cls-1" d="M600,0C268.63,0,0,268.63,0,600s268.63,600,600,600,600-268.63,600-600S931.37,0,600,0Zm331.62,471.65c.32,6.83,.46,13.7,.46,20.6,0,210.52-160.26,453.31-453.31,453.31-89.99,0-173.71-26.38-244.22-71.56,12.47,1.47,25.15,2.21,38.01,2.21,74.65,0,143.34-25.46,197.88-68.2-69.74-1.3-128.56-47.36-148.84-110.66,9.7,1.86,19.69,2.87,29.95,2.87,14.54,0,28.62-1.96,42-5.6-72.89-14.61-127.82-79.03-127.82-156.19,0-.7,0-1.37,.03-2.03,21.47,11.95,46.03,19.13,72.16,19.93-42.77-28.55-70.9-77.34-70.9-132.62,0-29.18,7.88-56.54,21.58-80.08,78.57,96.4,195.98,159.8,328.39,166.46-2.73-11.66-4.13-23.82-4.13-36.33,0-87.96,71.35-159.31,159.35-159.31,45.82,0,87.22,19.37,116.3,50.34,36.29-7.15,70.37-20.42,101.16-38.67-11.91,37.2-37.17,68.41-70.06,88.13,32.23-3.85,62.95-12.4,91.5-25.08-21.33,31.95-48.38,60-79.48,82.49Z"/></svg>