<?xml version="1.0" encoding="UTF-8"?><svg id="Layer_1" xmlns="http://www.w3.org/2000/svg" viewBox="0 0 1200 1200"><defs><style>.cls-1{fill:#fff;}</style></defs><circle class="cls-1" cx="600" cy="600" r="125.93" transform="translate(-248.53 600) rotate(-45)"/><path class="cls-1" d="M894.5,377.2c-6.85-17.63-15.04-30.22-28.26-43.44-13.22-13.22-25.8-21.41-43.44-28.26-13.31-5.17-33.32-11.33-70.15-13.01-39.84-1.82-51.78-2.2-152.65-2.2s-112.82,.38-152.66,2.2c-36.83,1.68-56.84,7.83-70.15,13.01-17.63,6.85-30.22,15.04-43.44,28.26-13.22,13.22-21.41,25.8-28.26,43.44-5.17,13.31-11.33,33.32-13.01,70.15-1.82,39.84-2.2,51.78-2.2,152.65s.39,112.82,2.2,152.66c1.68,36.83,7.83,56.84,13.01,70.15,6.85,17.63,15.04,30.22,28.26,43.44,13.22,13.22,25.8,21.41,43.44,28.26,13.31,5.17,33.32,11.33,70.15,13.01,39.83,1.82,51.78,2.2,152.65,2.2s112.82-.38,152.65-2.2c36.83-1.68,56.84-7.83,70.15-13.01,17.63-6.85,30.22-15.04,43.44-28.26,13.22-13.22,21.41-25.8,28.26-43.44,5.17-13.31,11.33-33.32,13.01-70.15,1.82-39.84,2.2-51.78,2.2-152.65s-.38-112.82-2.2-152.66c-1.68-36.83-7.83-56.84-13.01-70.15Zm-294.5,416.8c-107.14,0-193.99-86.85-193.99-193.99s86.85-193.99,193.99-193.99,193.99,86.85,193.99,193.99-86.85,193.99-193.99,193.99Zm201.66-350.32c-25.04,0-45.33-20.3-45.33-45.33s20.3-45.33,45.33-45.33,45.33,20.3,45.33,45.33-20.3,45.33-45.33,45.33Z"/><path class="cls-1" d="M600,0C268.63,0,0,268.63,0,600s268.63,600,600,600,600-268.63,600-600S931.37,0,600,0Zm375.5,755.76c-1.83,40.21-8.22,67.67-17.56,91.7-9.65,24.84-22.57,45.91-43.57,66.91-21,21-42.07,33.92-66.91,43.57-24.03,9.34-51.49,15.73-91.7,17.56-40.29,1.84-53.16,2.27-155.76,2.27s-115.46-.43-155.76-2.27c-40.21-1.83-67.67-8.22-91.7-17.56-24.84-9.65-45.91-22.57-66.91-43.57-21-21-33.92-42.07-43.57-66.91-9.34-24.03-15.73-51.49-17.56-91.7-1.84-40.29-2.27-53.16-2.27-155.76s.43-115.46,2.27-155.76c1.83-40.21,8.22-67.67,17.56-91.7,9.65-24.84,22.57-45.91,43.57-66.91,21-21,42.07-33.92,66.91-43.57,24.03-9.34,51.49-15.73,91.7-17.56,40.29-1.84,53.16-2.27,155.76-2.27s115.46,.43,155.76,2.27c40.21,1.83,67.67,8.22,91.7,17.56,24.84,9.65,45.91,22.57,66.91,43.57,21,21,33.92,42.07,43.57,66.91,9.34,24.03,15.73,51.49,17.56,91.7,1.84,40.29,2.27,53.16,2.27,155.76s-.43,115.46-2.27,155.76Z"/></svg>